<?xml version="1.0" encoding="utf-8"?>
<!-- Generator: Adobe Illustrator 19.0.0, SVG Export Plug-In . SVG Version: 6.00 Build 0)  -->
<svg version="1.1" id="Capa_1" xmlns="http://www.w3.org/2000/svg" xmlns:xlink="http://www.w3.org/1999/xlink" x="0px" y="0px"
	 viewBox="-365 244.3 228.7 72.7" style="enable-background:new -365 244.3 228.7 72.7;" xml:space="preserve">
<style type="text/css">
	.st0{fill:#FFFFFF;}
	.st1{clip-path:url(#SVGID_2_);fill:#FFFFFF;}
	.st2{clip-path:url(#SVGID_4_);fill:#FFFFFF;}
	.st3{fill:none;stroke:#FFFFFF;stroke-width:4.5354;stroke-miterlimit:22.9256;}
	.st4{clip-path:url(#SVGID_6_);fill:#FFFFFF;}
	.st5{clip-path:url(#SVGID_8_);fill:#FFFFFF;}
	.st6{clip-path:url(#SVGID_10_);fill:#FFFFFF;}
	.st7{clip-path:url(#SVGID_12_);fill:#FFFFFF;}
	.st8{clip-path:url(#SVGID_14_);fill:#FFFFFF;}
	.st9{clip-path:url(#SVGID_16_);fill:#FFFFFF;}
	.st10{clip-path:url(#SVGID_18_);fill:#FFFFFF;}
	.st11{fill:url(#XMLID_2_);}
	.st12{clip-path:url(#SVGID_20_);fill:#FFFFFF;}
	.st13{clip-path:url(#SVGID_22_);fill:#FFFFFF;}
	.st14{fill:url(#XMLID_3_);}
	.st15{clip-path:url(#SVGID_24_);fill:#FFFFFF;}
	.st16{fill:url(#XMLID_4_);}
	.st17{clip-path:url(#SVGID_26_);fill:#FFFFFF;}
	.st18{fill:url(#XMLID_5_);}
	.st19{clip-path:url(#SVGID_28_);fill:#FFFFFF;}
	.st20{fill:url(#XMLID_6_);}
	.st21{clip-path:url(#SVGID_30_);fill:#FFFFFF;}
	.st22{fill:url(#XMLID_7_);}
	.st23{clip-path:url(#SVGID_32_);fill:#FFFFFF;}
	.st24{fill:url(#XMLID_8_);}
	.st25{clip-path:url(#SVGID_34_);fill:#FFFFFF;}
	.st26{clip-path:url(#SVGID_36_);fill:#FFFFFF;}
	.st27{enable-background:new    ;}
	.st28{fill:#00AEEF;}
</style>
<path id="XMLID_159_" class="st0" d="M-349.7,275h19.9c2.1,0,3.8,1.7,3.8,3.8v19.9c0,2.1-1.7,3.8-3.8,3.8h-19.9
	c-2.1,0-3.8-1.7-3.8-3.8v-19.9C-353.5,276.7-351.8,275-349.7,275z"/>
<g id="XMLID_155_">
	<g>
		<defs>
			<path id="SVGID_1_" d="M-349.7,275h19.9c2.1,0,3.8,1.7,3.8,3.8v19.9c0,2.1-1.7,3.8-3.8,3.8h-19.9c-2.1,0-3.8-1.7-3.8-3.8v-19.9
				C-353.5,276.7-351.8,275-349.7,275z"/>
		</defs>
		<clipPath id="SVGID_2_">
			<use xlink:href="#SVGID_1_"  style="overflow:visible;"/>
		</clipPath>
		<path id="XMLID_158_" class="st1" d="M-345.6,298.9l9,1.5l2.6-15.9c-3.7,2.4-6.2,2-9-1.5L-345.6,298.9z"/>
	</g>
	<g>
		<defs>
			<path id="SVGID_3_" d="M-349.7,275h19.9c2.1,0,3.8,1.7,3.8,3.8v19.9c0,2.1-1.7,3.8-3.8,3.8h-19.9c-2.1,0-3.8-1.7-3.8-3.8v-19.9
				C-353.5,276.7-351.8,275-349.7,275z"/>
		</defs>
		<clipPath id="SVGID_4_">
			<use xlink:href="#SVGID_3_"  style="overflow:visible;"/>
		</clipPath>
		<circle id="XMLID_157_" class="st2" cx="-337.5" cy="277.6" r="4.9"/>
	</g>
</g>
<path id="XMLID_154_" class="st3" d="M-349.7,275h19.9c2.1,0,3.8,1.7,3.8,3.8v19.9c0,2.1-1.7,3.8-3.8,3.8h-19.9
	c-2.1,0-3.8-1.7-3.8-3.8v-19.9C-353.5,276.7-351.8,275-349.7,275z"/>
<path id="XMLID_153_" class="st0" d="M-319.6,281.2h19.9c2.1,0,3.8,1.7,3.8,3.8v19.9c0,2.1-1.7,3.8-3.8,3.8h-19.9
	c-2.1,0-3.8-1.7-3.8-3.8V285C-323.4,282.9-321.6,281.2-319.6,281.2z"/>
<g id="XMLID_150_">
	<g>
		<defs>
			<path id="SVGID_5_" d="M-319.6,281.2h19.9c2.1,0,3.8,1.7,3.8,3.8v19.9c0,2.1-1.7,3.8-3.8,3.8h-19.9c-2.1,0-3.8-1.7-3.8-3.8V285
				C-323.4,282.9-321.6,281.2-319.6,281.2z"/>
		</defs>
		<clipPath id="SVGID_6_">
			<use xlink:href="#SVGID_5_"  style="overflow:visible;"/>
		</clipPath>
		<path id="XMLID_152_" class="st4" d="M-320.9,304.4l7.1,1c0.4-3,1.3-15.2,5.9-14.6c5.3,0.8,1.4,12.5,0.9,15.5l7,1
			c0.5-3.8,2.9-15,1.8-18.2c-1.6-4.8-8.8-5.1-13.1-1.8l0,0l0.2-1.5l0.1-0.8c0.1-0.8-0.1-0.8-6.9-1.8L-320.9,304.4z"/>
	</g>
</g>
<path id="XMLID_149_" class="st3" d="M-319.6,281.2h19.9c2.1,0,3.8,1.7,3.8,3.8v19.9c0,2.1-1.7,3.8-3.8,3.8h-19.9
	c-2.1,0-3.8-1.7-3.8-3.8V285C-323.4,282.9-321.6,281.2-319.6,281.2z"/>
<path id="XMLID_148_" class="st0" d="M-289.4,277.9h19.9c2.1,0,3.8,1.7,3.8,3.8v19.9c0,2.1-1.7,3.8-3.8,3.8h-19.9
	c-2.1,0-3.8-1.7-3.8-3.8v-19.9C-293.2,279.6-291.5,277.9-289.4,277.9z"/>
<g id="XMLID_143_">
	<g>
		<defs>
			<path id="SVGID_7_" d="M-289.4,277.9h19.9c2.1,0,3.8,1.7,3.8,3.8v19.9c0,2.1-1.7,3.8-3.8,3.8h-19.9c-2.1,0-3.8-1.7-3.8-3.8v-19.9
				C-293.2,279.6-291.5,277.9-289.4,277.9z"/>
		</defs>
		<clipPath id="SVGID_8_">
			<use xlink:href="#SVGID_7_"  style="overflow:visible;"/>
		</clipPath>
		<path id="XMLID_145_" class="st5" d="M-275.9,297.7c0,2.1-0.8,3.6-2.7,4.2c-1.6,0.5-5.6-0.1-5.8-2.5l-6.8-1.7
			c0,4.2,1.7,7.3,5.9,8.4c2.8,0.7,6.1,1.1,8,0.9c4.2-0.5,6.7-2.8,7.7-6.9l4.6-18.6l-7.2-1.3l-0.7,2.9c-3.5-4.8-10.1-5.4-13.2-1.9
			C-292.9,288.5-288.6,300.9-275.9,297.7L-275.9,297.7z M-279,283.7c2.5-0.4,4.7,1.7,4.9,4.5c0.2,2.9-1.7,5.5-4.2,5.9
			s-4.7-1.7-4.9-4.5C-283.4,286.7-281.5,284.1-279,283.7z"/>
	</g>
</g>
<path id="XMLID_142_" class="st3" d="M-289.4,277.9h19.9c2.1,0,3.8,1.7,3.8,3.8v19.9c0,2.1-1.7,3.8-3.8,3.8h-19.9
	c-2.1,0-3.8-1.7-3.8-3.8v-19.9C-293.2,279.6-291.5,277.9-289.4,277.9z"/>
<path id="XMLID_141_" class="st0" d="M-259.2,274.7h19.9c2.1,0,3.8,1.7,3.8,3.8v19.9c0,2.1-1.7,3.8-3.8,3.8h-19.9
	c-2.1,0-3.8-1.7-3.8-3.8v-19.9C-263,276.4-261.3,274.7-259.2,274.7z"/>
<g id="XMLID_136_">
	<g>
		<defs>
			<path id="SVGID_9_" d="M-259.2,274.7h19.9c2.1,0,3.8,1.7,3.8,3.8v19.9c0,2.1-1.7,3.8-3.8,3.8h-19.9c-2.1,0-3.8-1.7-3.8-3.8v-19.9
				C-263,276.4-261.3,274.7-259.2,274.7z"/>
		</defs>
		<clipPath id="SVGID_10_">
			<use xlink:href="#SVGID_9_"  style="overflow:visible;"/>
		</clipPath>
		<path id="XMLID_138_" class="st6" d="M-240.6,296.8l-5.8-2c-3.7,2.1-10-1.5-8.5-5.9l0,0l15.3,5.5c3.9-5.6,2.1-12.2-2.2-15.4
			c-2.5-1.9-6-2.7-9.7-1.9c-9.5,1.9-13,14.4-5.8,20.3c3,2.4,7.9,3.6,11.5,2.5C-244.1,299.3-242.5,298.3-240.6,296.8L-240.6,296.8z
			 M-253.4,284.7c0.4-2.2,4.1-4.3,7.4-2.9c2.4,1,4.5,4.1,3,6.6L-253.4,284.7z"/>
	</g>
</g>
<path id="XMLID_135_" class="st3" d="M-259.2,274.7h19.9c2.1,0,3.8,1.7,3.8,3.8v19.9c0,2.1-1.7,3.8-3.8,3.8h-19.9
	c-2.1,0-3.8-1.7-3.8-3.8v-19.9C-263,276.4-261.3,274.7-259.2,274.7z"/>
<path id="XMLID_134_" class="st0" d="M-229,278h19.9c2.1,0,3.8,1.7,3.8,3.8v19.9c0,2.1-1.7,3.8-3.8,3.8H-229c-2.1,0-3.8-1.7-3.8-3.8
	v-19.9C-232.8,279.7-231.1,278-229,278z"/>
<g id="XMLID_131_">
	<g>
		<defs>
			<path id="SVGID_11_" d="M-229,278h19.9c2.1,0,3.8,1.7,3.8,3.8v19.9c0,2.1-1.7,3.8-3.8,3.8H-229c-2.1,0-3.8-1.7-3.8-3.8v-19.9
				C-232.8,279.7-231.1,278-229,278z"/>
		</defs>
		<clipPath id="SVGID_12_">
			<use xlink:href="#SVGID_11_"  style="overflow:visible;"/>
		</clipPath>
		<path id="XMLID_133_" class="st7" d="M-230.6,300.8l7.1,1c0.4-3,1.3-15.2,5.9-14.6c5.3,0.8,1.4,12.5,0.9,15.5l7,1
			c0.5-3.8,2.9-15,1.8-18.2c-1.6-4.9-8.8-5.1-13.1-1.9l0,0l0.2-1.5l0.1-0.8c0.1-0.8-0.1-0.8-6.9-1.8L-230.6,300.8z"/>
	</g>
</g>
<path id="XMLID_130_" class="st3" d="M-229,278h19.9c2.1,0,3.8,1.7,3.8,3.8v19.9c0,2.1-1.7,3.8-3.8,3.8H-229c-2.1,0-3.8-1.7-3.8-3.8
	v-19.9C-232.8,279.7-231.1,278-229,278z"/>
<path id="XMLID_129_" class="st0" d="M-168.6,274.9h19.9c2.1,0,3.8,1.7,3.8,3.8v19.9c0,2.1-1.7,3.8-3.8,3.8h-19.9
	c-2.1,0-3.8-1.7-3.8-3.8v-19.9C-172.4,276.6-170.7,274.9-168.6,274.9z"/>
<g id="XMLID_124_">
	<g>
		<defs>
			<path id="SVGID_13_" d="M-168.6,274.9h19.9c2.1,0,3.8,1.7,3.8,3.8v19.9c0,2.1-1.7,3.8-3.8,3.8h-19.9c-2.1,0-3.8-1.7-3.8-3.8
				v-19.9C-172.4,276.6-170.7,274.9-168.6,274.9z"/>
		</defs>
		<clipPath id="SVGID_14_">
			<use xlink:href="#SVGID_13_"  style="overflow:visible;"/>
		</clipPath>
		<path id="XMLID_126_" class="st8" d="M-148,283.2c3,5,0.9,12.7-4.6,15.2c-4,1.8-8.6,1.1-12.5-0.6c-8.7-3.7-6.5-16.6,1.4-19.5
			C-159.3,276.6-150.7,278.7-148,283.2L-148,283.2z M-156.9,283.3c-2.4-0.8-5.1,1-6.1,3.9c-0.9,2.9,0.3,5.9,2.7,6.7
			c2.4,0.8,5.1-1,6.1-3.9C-153.3,287.1-154.5,284.1-156.9,283.3z"/>
	</g>
</g>
<path id="XMLID_123_" class="st3" d="M-168.6,274.9h19.9c2.1,0,3.8,1.7,3.8,3.8v19.9c0,2.1-1.7,3.8-3.8,3.8h-19.9
	c-2.1,0-3.8-1.7-3.8-3.8v-19.9C-172.4,276.6-170.7,274.9-168.6,274.9z"/>
<path id="XMLID_122_" class="st0" d="M-198.7,281h19.9c2.1,0,3.8,1.7,3.8,3.8v19.9c0,2.1-1.7,3.8-3.8,3.8h-19.9
	c-2.1,0-3.8-1.7-3.8-3.8v-19.9C-202.5,282.7-200.8,281-198.7,281z"/>
<g id="XMLID_118_">
	<g>
		<defs>
			<path id="SVGID_15_" d="M-198.7,281h19.9c2.1,0,3.8,1.7,3.8,3.8v19.9c0,2.1-1.7,3.8-3.8,3.8h-19.9c-2.1,0-3.8-1.7-3.8-3.8v-19.9
				C-202.5,282.7-200.8,281-198.7,281z"/>
		</defs>
		<clipPath id="SVGID_16_">
			<use xlink:href="#SVGID_15_"  style="overflow:visible;"/>
		</clipPath>
		<path id="XMLID_121_" class="st9" d="M-194.6,304.9l9,1.5l2.6-15.9c-3.7,2.4-6.2,2-9-1.5L-194.6,304.9z"/>
	</g>
	<g>
		<defs>
			<path id="SVGID_17_" d="M-198.7,281h19.9c2.1,0,3.8,1.7,3.8,3.8v19.9c0,2.1-1.7,3.8-3.8,3.8h-19.9c-2.1,0-3.8-1.7-3.8-3.8v-19.9
				C-202.5,282.7-200.8,281-198.7,281z"/>
		</defs>
		<clipPath id="SVGID_18_">
			<use xlink:href="#SVGID_17_"  style="overflow:visible;"/>
		</clipPath>
		<circle id="XMLID_120_" class="st10" cx="-186.5" cy="283.7" r="4.9"/>
	</g>
</g>
<path id="XMLID_117_" class="st3" d="M-198.7,281h19.9c2.1,0,3.8,1.7,3.8,3.8v19.9c0,2.1-1.7,3.8-3.8,3.8h-19.9
	c-2.1,0-3.8-1.7-3.8-3.8v-19.9C-202.5,282.7-200.8,281-198.7,281z"/>
<radialGradient id="XMLID_2_" cx="-343.0671" cy="282.6716" r="25.0393" gradientTransform="matrix(1 0 0 -1 0 562.6)" gradientUnits="userSpaceOnUse">
	<stop  offset="0" style="stop-color:#00ABEB"/>
	<stop  offset="0.23" style="stop-color:#00ABEB"/>
	<stop  offset="0.52" style="stop-color:#488DC8"/>
	<stop  offset="0.75" style="stop-color:#3C64AA"/>
	<stop  offset="1" style="stop-color:#32338D"/>
</radialGradient>
<path id="XMLID_116_" class="st11" d="M-349.7,275h19.9c2.1,0,3.8,1.7,3.8,3.8v19.9c0,2.1-1.7,3.8-3.8,3.8h-19.9
	c-2.1,0-3.8-1.7-3.8-3.8v-19.9C-353.5,276.7-351.8,275-349.7,275z"/>
<g id="XMLID_112_">
	<g>
		<defs>
			<path id="SVGID_19_" d="M-349.7,275h19.9c2.1,0,3.8,1.7,3.8,3.8v19.9c0,2.1-1.7,3.8-3.8,3.8h-19.9c-2.1,0-3.8-1.7-3.8-3.8v-19.9
				C-353.5,276.7-351.8,275-349.7,275z"/>
		</defs>
		<clipPath id="SVGID_20_">
			<use xlink:href="#SVGID_19_"  style="overflow:visible;"/>
		</clipPath>
		<path id="XMLID_115_" class="st12" d="M-345.6,298.9l9,1.5l2.6-15.9c-3.7,2.4-6.2,2-9-1.5L-345.6,298.9z"/>
	</g>
	<g>
		<defs>
			<path id="SVGID_21_" d="M-349.7,275h19.9c2.1,0,3.8,1.7,3.8,3.8v19.9c0,2.1-1.7,3.8-3.8,3.8h-19.9c-2.1,0-3.8-1.7-3.8-3.8v-19.9
				C-353.5,276.7-351.8,275-349.7,275z"/>
		</defs>
		<clipPath id="SVGID_22_">
			<use xlink:href="#SVGID_21_"  style="overflow:visible;"/>
		</clipPath>
		<circle id="XMLID_114_" class="st13" cx="-337.5" cy="277.6" r="4.9"/>
	</g>
</g>
<radialGradient id="XMLID_3_" cx="-312.9108" cy="276.4938" r="25.0375" gradientTransform="matrix(1 0 0 -1 0 562.6)" gradientUnits="userSpaceOnUse">
	<stop  offset="0" style="stop-color:#00ABEB"/>
	<stop  offset="0.23" style="stop-color:#00ABEB"/>
	<stop  offset="0.52" style="stop-color:#488DC8"/>
	<stop  offset="0.75" style="stop-color:#3C64AA"/>
	<stop  offset="1" style="stop-color:#32338D"/>
</radialGradient>
<path id="XMLID_111_" class="st14" d="M-319.6,281.2h19.9c2.1,0,3.8,1.7,3.8,3.8v19.9c0,2.1-1.7,3.8-3.8,3.8h-19.9
	c-2.1,0-3.8-1.7-3.8-3.8V285C-323.4,282.9-321.6,281.2-319.6,281.2z"/>
<g id="XMLID_108_">
	<g>
		<defs>
			<path id="SVGID_23_" d="M-319.6,281.2h19.9c2.1,0,3.8,1.7,3.8,3.8v19.9c0,2.1-1.7,3.8-3.8,3.8h-19.9c-2.1,0-3.8-1.7-3.8-3.8V285
				C-323.4,282.9-321.6,281.2-319.6,281.2z"/>
		</defs>
		<clipPath id="SVGID_24_">
			<use xlink:href="#SVGID_23_"  style="overflow:visible;"/>
		</clipPath>
		<path id="XMLID_110_" class="st15" d="M-320.9,304.4l7.1,1c0.4-3,1.3-15.2,5.9-14.6c5.3,0.8,1.4,12.5,0.9,15.5l7,1
			c0.5-3.8,2.9-15,1.8-18.2c-1.6-4.8-8.8-5.1-13.1-1.8l0,0l0.2-1.5l0.1-0.8c0.1-0.8-0.1-0.8-6.9-1.8L-320.9,304.4z"/>
	</g>
</g>
<radialGradient id="XMLID_4_" cx="-282.7357" cy="279.7842" r="25.0395" gradientTransform="matrix(1 0 0 -1 0 562.6)" gradientUnits="userSpaceOnUse">
	<stop  offset="0" style="stop-color:#00ABEB"/>
	<stop  offset="0.23" style="stop-color:#00ABEB"/>
	<stop  offset="0.52" style="stop-color:#488DC8"/>
	<stop  offset="0.75" style="stop-color:#3C64AA"/>
	<stop  offset="1" style="stop-color:#32338D"/>
</radialGradient>
<path id="XMLID_107_" class="st16" d="M-289.4,277.9h19.9c2.1,0,3.8,1.7,3.8,3.8v19.9c0,2.1-1.7,3.8-3.8,3.8h-19.9
	c-2.1,0-3.8-1.7-3.8-3.8v-19.9C-293.2,279.6-291.5,277.9-289.4,277.9z"/>
<g id="XMLID_102_">
	<g>
		<defs>
			<path id="SVGID_25_" d="M-289.4,277.9h19.9c2.1,0,3.8,1.7,3.8,3.8v19.9c0,2.1-1.7,3.8-3.8,3.8h-19.9c-2.1,0-3.8-1.7-3.8-3.8
				v-19.9C-293.2,279.6-291.5,277.9-289.4,277.9z"/>
		</defs>
		<clipPath id="SVGID_26_">
			<use xlink:href="#SVGID_25_"  style="overflow:visible;"/>
		</clipPath>
		<path id="XMLID_104_" class="st17" d="M-275.9,297.7c0,2.1-0.8,3.6-2.7,4.2c-1.6,0.5-5.6-0.1-5.8-2.5l-6.8-1.7
			c0,4.2,1.7,7.3,5.9,8.4c2.8,0.7,6.1,1.1,8,0.9c4.2-0.5,6.7-2.8,7.7-6.9l4.6-18.6l-7.2-1.3l-0.7,2.9c-3.5-4.8-10.1-5.4-13.2-1.9
			C-292.9,288.5-288.6,300.9-275.9,297.7L-275.9,297.7z M-279,283.7c2.5-0.4,4.7,1.7,4.9,4.5c0.2,2.9-1.7,5.5-4.2,5.9
			s-4.7-1.7-4.9-4.5C-283.4,286.7-281.5,284.1-279,283.7z"/>
	</g>
</g>
<radialGradient id="XMLID_5_" cx="-252.5607" cy="282.942" r="25.0394" gradientTransform="matrix(1 0 0 -1 0 562.6)" gradientUnits="userSpaceOnUse">
	<stop  offset="0" style="stop-color:#00ABEB"/>
	<stop  offset="0.23" style="stop-color:#00ABEB"/>
	<stop  offset="0.52" style="stop-color:#488DC8"/>
	<stop  offset="0.75" style="stop-color:#3C64AA"/>
	<stop  offset="1" style="stop-color:#32338D"/>
</radialGradient>
<path id="XMLID_101_" class="st18" d="M-259.2,274.7h19.9c2.1,0,3.8,1.7,3.8,3.8v19.9c0,2.1-1.7,3.8-3.8,3.8h-19.9
	c-2.1,0-3.8-1.7-3.8-3.8v-19.9C-263,276.4-261.3,274.7-259.2,274.7z"/>
<g id="XMLID_96_">
	<g>
		<defs>
			<path id="SVGID_27_" d="M-259.2,274.7h19.9c2.1,0,3.8,1.7,3.8,3.8v19.9c0,2.1-1.7,3.8-3.8,3.8h-19.9c-2.1,0-3.8-1.7-3.8-3.8
				v-19.9C-263,276.4-261.3,274.7-259.2,274.7z"/>
		</defs>
		<clipPath id="SVGID_28_">
			<use xlink:href="#SVGID_27_"  style="overflow:visible;"/>
		</clipPath>
		<path id="XMLID_98_" class="st19" d="M-240.6,296.8l-5.8-2c-3.7,2.1-10-1.5-8.5-5.9l0,0l15.3,5.5c3.9-5.6,2.1-12.2-2.2-15.4
			c-2.5-1.9-6-2.7-9.7-1.9c-9.5,1.9-13,14.4-5.8,20.3c3,2.4,7.9,3.6,11.5,2.5C-244.1,299.3-242.5,298.3-240.6,296.8L-240.6,296.8z
			 M-253.4,284.7c0.4-2.2,4.1-4.3,7.4-2.9c2.4,1,4.5,4.1,3,6.6L-253.4,284.7z"/>
	</g>
</g>
<radialGradient id="XMLID_6_" cx="-222.3624" cy="279.676" r="25.0397" gradientTransform="matrix(1 0 0 -1 0 562.6)" gradientUnits="userSpaceOnUse">
	<stop  offset="0" style="stop-color:#00ABEB"/>
	<stop  offset="0.23" style="stop-color:#00ABEB"/>
	<stop  offset="0.52" style="stop-color:#488DC8"/>
	<stop  offset="0.75" style="stop-color:#3C64AA"/>
	<stop  offset="1" style="stop-color:#32338D"/>
</radialGradient>
<path id="XMLID_95_" class="st20" d="M-229,278h19.9c2.1,0,3.8,1.7,3.8,3.8v19.9c0,2.1-1.7,3.8-3.8,3.8H-229c-2.1,0-3.8-1.7-3.8-3.8
	v-19.9C-232.8,279.7-231.1,278-229,278z"/>
<g id="XMLID_92_">
	<g>
		<defs>
			<path id="SVGID_29_" d="M-229,278h19.9c2.1,0,3.8,1.7,3.8,3.8v19.9c0,2.1-1.7,3.8-3.8,3.8H-229c-2.1,0-3.8-1.7-3.8-3.8v-19.9
				C-232.8,279.7-231.1,278-229,278z"/>
		</defs>
		<clipPath id="SVGID_30_">
			<use xlink:href="#SVGID_29_"  style="overflow:visible;"/>
		</clipPath>
		<path id="XMLID_94_" class="st21" d="M-230.6,300.8l7.1,1c0.4-3,1.3-15.2,5.9-14.6c5.3,0.8,1.4,12.5,0.9,15.5l7,1
			c0.5-3.8,2.9-15,1.8-18.2c-1.6-4.9-8.8-5.1-13.1-1.9l0,0l0.2-1.5l0.1-0.8c0.1-0.8-0.1-0.8-6.9-1.8L-230.6,300.8z"/>
	</g>
</g>
<radialGradient id="XMLID_7_" cx="-161.9979" cy="282.7847" r="25.0393" gradientTransform="matrix(1 0 0 -1 0 562.6)" gradientUnits="userSpaceOnUse">
	<stop  offset="0" style="stop-color:#00ABEB"/>
	<stop  offset="0.23" style="stop-color:#00ABEB"/>
	<stop  offset="0.52" style="stop-color:#488DC8"/>
	<stop  offset="0.75" style="stop-color:#3C64AA"/>
	<stop  offset="1" style="stop-color:#32338D"/>
</radialGradient>
<path id="XMLID_91_" class="st22" d="M-168.6,274.9h19.9c2.1,0,3.8,1.7,3.8,3.8v19.9c0,2.1-1.7,3.8-3.8,3.8h-19.9
	c-2.1,0-3.8-1.7-3.8-3.8v-19.9C-172.4,276.6-170.7,274.9-168.6,274.9z"/>
<g id="XMLID_86_">
	<g>
		<defs>
			<path id="SVGID_31_" d="M-168.6,274.9h19.9c2.1,0,3.8,1.7,3.8,3.8v19.9c0,2.1-1.7,3.8-3.8,3.8h-19.9c-2.1,0-3.8-1.7-3.8-3.8
				v-19.9C-172.4,276.6-170.7,274.9-168.6,274.9z"/>
		</defs>
		<clipPath id="SVGID_32_">
			<use xlink:href="#SVGID_31_"  style="overflow:visible;"/>
		</clipPath>
		<path id="XMLID_88_" class="st23" d="M-148,283.2c3,5,0.9,12.7-4.6,15.2c-4,1.8-8.6,1.1-12.5-0.6c-8.7-3.7-6.5-16.6,1.4-19.5
			C-159.3,276.6-150.7,278.7-148,283.2L-148,283.2z M-156.9,283.3c-2.4-0.8-5.1,1-6.1,3.9c-0.9,2.9,0.3,5.9,2.7,6.7
			c2.4,0.8,5.1-1,6.1-3.9C-153.3,287.1-154.5,284.1-156.9,283.3z"/>
	</g>
</g>
<radialGradient id="XMLID_8_" cx="-192.0831" cy="276.6347" r="25.0394" gradientTransform="matrix(1 0 0 -1 0 562.6)" gradientUnits="userSpaceOnUse">
	<stop  offset="0" style="stop-color:#00ABEB"/>
	<stop  offset="0.23" style="stop-color:#00ABEB"/>
	<stop  offset="0.52" style="stop-color:#488DC8"/>
	<stop  offset="0.75" style="stop-color:#3C64AA"/>
	<stop  offset="1" style="stop-color:#32338D"/>
</radialGradient>
<path id="XMLID_85_" class="st24" d="M-198.7,281h19.9c2.1,0,3.8,1.7,3.8,3.8v19.9c0,2.1-1.7,3.8-3.8,3.8h-19.9
	c-2.1,0-3.8-1.7-3.8-3.8v-19.9C-202.5,282.7-200.8,281-198.7,281z"/>
<g id="XMLID_81_">
	<g>
		<defs>
			<path id="SVGID_33_" d="M-198.7,281h19.9c2.1,0,3.8,1.7,3.8,3.8v19.9c0,2.1-1.7,3.8-3.8,3.8h-19.9c-2.1,0-3.8-1.7-3.8-3.8v-19.9
				C-202.5,282.7-200.8,281-198.7,281z"/>
		</defs>
		<clipPath id="SVGID_34_">
			<use xlink:href="#SVGID_33_"  style="overflow:visible;"/>
		</clipPath>
		<path id="XMLID_84_" class="st25" d="M-194.6,304.9l9,1.5l2.6-15.9c-3.7,2.4-6.2,2-9-1.5L-194.6,304.9z"/>
	</g>
	<g>
		<defs>
			<path id="SVGID_35_" d="M-198.7,281h19.9c2.1,0,3.8,1.7,3.8,3.8v19.9c0,2.1-1.7,3.8-3.8,3.8h-19.9c-2.1,0-3.8-1.7-3.8-3.8v-19.9
				C-202.5,282.7-200.8,281-198.7,281z"/>
		</defs>
		<clipPath id="SVGID_36_">
			<use xlink:href="#SVGID_35_"  style="overflow:visible;"/>
		</clipPath>
		<circle id="XMLID_83_" class="st26" cx="-186.5" cy="283.7" r="4.9"/>
	</g>
</g>
<g class="st27">
	<path class="st28" d="M-340.4,262.9v5.2c-1.4,1-3.7,1.7-5.5,1.7c-4,0-7.1-2.9-7.1-6.8c0-3.9,3.1-6.8,7.3-6.8c2,0,4.1,0.8,5.4,2
		l-1.9,2.3c-1-0.9-2.3-1.4-3.6-1.4c-2.2,0-3.9,1.7-3.9,3.9c0,2.3,1.7,4,3.9,4c0.7,0,1.6-0.2,2.4-0.6v-3.4H-340.4z"/>
	<path class="st28" d="M-334.8,261.1c0.7-1.2,1.9-1.9,3.3-1.9v3c-1.9-0.2-3.2,0.7-3.3,2.2v5.3h-3.3v-10.2h3.3V261.1z"/>
	<path class="st28" d="M-320,269.6h-3.3v-1.7c-0.7,1.2-1.8,1.8-3.3,1.8c-2.2,0-3.7-1.5-3.7-3.9v-6.5h3.3v5.5c0,1.2,0.7,2,1.7,2
		c1.3,0,2-1,2-2.4v-5.1h3.3V269.6z"/>
	<path class="st28" d="M-306.1,264.6c0,3.1-1.9,5.2-4.7,5.2c-1.3,0-2.4-0.5-3.1-1.5v5.1h-3.3v-13.9h3.3v1.3c0.7-0.9,1.8-1.5,3.1-1.5
		C-308,259.3-306.1,261.4-306.1,264.6z M-309.4,264.5c0-1.6-0.9-2.7-2.3-2.7c-1.3,0-2.3,1.1-2.3,2.7c0,1.6,0.9,2.7,2.3,2.7
		C-310.4,267.1-309.4,266-309.4,264.5z"/>
	<path class="st28" d="M-294,264.5c0,3.2-2.2,5.2-5.6,5.2c-3.4,0-5.6-2.1-5.6-5.2c0-3.2,2.2-5.2,5.6-5.2
		C-296.3,259.3-294,261.3-294,264.5z M-301.9,264.5c0,1.6,0.9,2.7,2.3,2.7c1.3,0,2.3-1.1,2.3-2.7c0-1.6-0.9-2.7-2.3-2.7
		C-301,261.9-301.9,263-301.9,264.5z"/>
</g>
</svg>
