<?xml version="1.0" encoding="utf-8"?>
<!-- Generator: Adobe Illustrator 19.0.0, SVG Export Plug-In . SVG Version: 6.00 Build 0)  -->
<svg version="1.1" id="Capa_1" xmlns="http://www.w3.org/2000/svg" xmlns:xlink="http://www.w3.org/1999/xlink" x="0px" y="0px"
	 viewBox="-260 352 90 90" style="enable-background:new -260 352 90 90;" xml:space="preserve">
<style type="text/css">
	.st0{fill:#FFFFFF;}
</style>
<g>
	<g>
		<path class="st0" d="M-194.6,358.2c-5.7-4.1-12.9-6.2-21.5-6.2c-6.6,0-12.1,1.4-16.6,4.3c-7.1,4.5-10.9,12.2-11.4,23.1h16.5
			c0-3.2,0.9-6.2,2.8-9.1c1.8-2.9,5-4.4,9.4-4.4c4.5,0,7.6,1.2,9.3,3.6c1.7,2.4,2.5,5,2.5,7.9c0,2.5-1.3,4.8-2.8,6.9
			c-0.8,1.2-1.9,2.3-3.3,3.4c0,0-9,5.8-12.9,10.4c-2.3,2.7-2.5,6.7-2.7,12.4c0,0.4,0.1,1.3,1.6,1.3s11.6,0,12.9,0
			c1.3,0,1.5-1,1.6-1.4c0.1-2.1,0.3-3.2,0.7-4.4c0.7-2.3,2.7-4.3,4.9-6l4.6-3.1c4.1-3.2,7.4-5.8,8.8-7.9c2.5-3.4,4.2-7.6,4.2-12.5
			C-186,368.4-188.9,362.3-194.6,358.2z M-216.3,421.6c-5.7-0.2-10.4,3.8-10.6,10c-0.2,6.2,4.3,10.3,10,10.4
			c5.9,0.2,10.5-3.6,10.7-9.8C-206,426-210.3,421.8-216.3,421.6z"/>
	</g>
</g>
</svg>
